<svg width="112" height="24" viewBox="0 0 112 24" fill="none" xmlns="http://www.w3.org/2000/svg">
<path fill-rule="evenodd" clip-rule="evenodd" d="M8 5.99997C6.93913 5.99997 5.92172 6.4214 5.17157 7.17155C4.42143 7.92169 4 8.93911 4 9.99997C4 11.0608 4.42143 12.0783 5.17157 12.8284C5.92172 13.5785 6.93913 14 8 14C9.06087 14 10.0783 13.5785 10.8284 12.8284C11.5786 12.0783 12 11.0608 12 9.99997C12 8.93911 11.5786 7.92169 10.8284 7.17155C10.0783 6.4214 9.06087 5.99997 8 5.99997ZM2 9.99997C1.99988 9.05568 2.22264 8.12468 2.65017 7.28271C3.0777 6.44074 3.69792 5.71157 4.4604 5.1545C5.22287 4.59743 6.10606 4.22819 7.03815 4.07681C7.97023 3.92543 8.92488 3.99618 9.82446 4.28332C10.724 4.57046 11.5432 5.06587 12.2152 5.72927C12.8872 6.39266 13.3931 7.20531 13.6919 8.10111C13.9906 8.9969 14.0737 9.95056 13.9343 10.8845C13.795 11.8185 13.4372 12.7064 12.89 13.476L17.707 18.293C17.8892 18.4816 17.99 18.7342 17.9877 18.9964C17.9854 19.2586 17.8802 19.5094 17.6948 19.6948C17.5094 19.8802 17.2586 19.9854 16.9964 19.9876C16.7342 19.9899 16.4816 19.8891 16.293 19.707L11.477 14.891C10.5794 15.5293 9.52335 15.9081 8.42468 15.9861C7.326 16.0641 6.22707 15.8381 5.2483 15.3329C4.26953 14.8278 3.44869 14.063 2.87572 13.1223C2.30276 12.1816 1.99979 11.1014 2 9.99997Z" fill="#202020"/>
<path d="M46.5 4.5H48.1667L48.5 6.16667M48.5 6.16667H61.5L58.1667 12.8333H49.8333M48.5 6.16667L49.8333 12.8333M49.8333 12.8333L47.9225 14.7442C47.3975 15.2692 47.7692 16.1667 48.5117 16.1667H58.1667M58.1667 16.1667C57.7246 16.1667 57.3007 16.3423 56.9882 16.6548C56.6756 16.9674 56.5 17.3913 56.5 17.8333C56.5 18.2754 56.6756 18.6993 56.9882 19.0118C57.3007 19.3244 57.7246 19.5 58.1667 19.5C58.6087 19.5 59.0326 19.3244 59.3452 19.0118C59.6577 18.6993 59.8333 18.2754 59.8333 17.8333C59.8333 17.3913 59.6577 16.9674 59.3452 16.6548C59.0326 16.3423 58.6087 16.1667 58.1667 16.1667ZM51.5 17.8333C51.5 18.2754 51.3244 18.6993 51.0118 19.0118C50.6993 19.3244 50.2754 19.5 49.8333 19.5C49.3913 19.5 48.9674 19.3244 48.6548 19.0118C48.3423 18.6993 48.1667 18.2754 48.1667 17.8333C48.1667 17.3913 48.3423 16.9674 48.6548 16.6548C48.9674 16.3423 49.3913 16.1667 49.8333 16.1667C50.2754 16.1667 50.6993 16.3423 51.0118 16.6548C51.3244 16.9674 51.5 17.3913 51.5 17.8333Z" stroke="#202020" stroke-width="2" stroke-linecap="round" stroke-linejoin="round"/>
<path d="M104 7C104 8.06087 103.579 9.07828 102.828 9.82843C102.078 10.5786 101.061 11 100 11C98.9391 11 97.9217 10.5786 97.1716 9.82843C96.4214 9.07828 96 8.06087 96 7C96 5.93913 96.4214 4.92172 97.1716 4.17157C97.9217 3.42143 98.9391 3 100 3C101.061 3 102.078 3.42143 102.828 4.17157C103.579 4.92172 104 5.93913 104 7ZM100 14C98.1435 14 96.363 14.7375 95.0503 16.0503C93.7375 17.363 93 19.1435 93 21H107C107 19.1435 106.263 17.363 104.95 16.0503C103.637 14.7375 101.857 14 100 14Z" stroke="#202020" stroke-width="2" stroke-linecap="round" stroke-linejoin="round"/>
</svg>
