<svg width="178" height="177" viewBox="0 0 178 177" fill="none" xmlns="http://www.w3.org/2000/svg">
<path d="M16.6335 49.3062C16.2548 50.003 15.4213 50.2368 14.7548 49.8746C14.0732 49.5041 13.8311 48.6858 14.2098 47.989C14.5803 47.3074 15.4068 47.0502 16.0884 47.4206C16.755 47.7828 17.0039 48.6245 16.6335 49.3062ZM21.927 52.2026C21.5565 52.8843 20.7149 53.1332 20.0484 52.771C19.3667 52.4006 19.1329 51.5671 19.5033 50.8855C19.882 50.1887 20.7003 49.9466 21.382 50.3171C22.0485 50.6793 22.2974 51.521 21.927 52.2026Z" fill="#202020"/>
<path d="M8.04111 78.0292L11.1313 78.4631L11.8265 73.512L13.807 73.79L12.8121 80.8753L7.74144 80.1633L7.58561 81.273L5.65638 81.0021L5.81221 79.8924L0.861084 79.1971L1.56351 74.1948L3.52689 74.4705L3.12413 77.3387L6.11188 77.7583L6.61772 74.1559L8.54695 74.4268L8.04111 78.0292Z" fill="#202020"/>
<path d="M0.735797 91.3296L2.72969 91.1749L3.05759 95.4034L6.42658 95.1421L6.13067 91.3262L8.05581 91.1769L8.35172 94.9928L13.113 94.6236L13.2796 96.7722L8.51834 97.1414L8.61831 98.4306L6.69317 98.5798L6.5932 97.2907L1.23032 97.7066L0.735797 91.3296Z" fill="#202020"/>
<path d="M4.98664 110.006L6.319 111.27L4.47911 111.236L3.69658 112.927L3.14087 111.147L1.30897 110.933L2.8204 109.876L2.46529 108.046L3.95623 109.163L5.55999 108.261L4.98664 110.006ZM14.4835 106.49L15.0106 108.579L7.82245 110.393L7.29536 108.303L14.4835 106.49Z" fill="#202020"/>
<path d="M7.37562 123.153L16.6777 119.346L15.0255 115.309L16.8923 114.545L19.3609 120.576L8.19193 125.147L7.37562 123.153Z" fill="#202020"/>
<path d="M26.9694 146.718C27.8552 145.799 29.0298 145.351 30.2907 145.634C30.2958 144.561 30.788 143.454 31.8174 142.387L33.1579 140.998L34.709 142.494L33.4402 143.809C31.9919 145.31 32.0232 146.371 33.1275 147.436L34.0333 148.31L37.265 144.959L38.8161 146.456L35.5843 149.806L36.3908 150.584L35.0383 151.986L34.2318 151.208L30.4375 155.141L27.5588 152.364C25.4618 150.342 25.5092 148.231 26.9694 146.718ZM30.2629 152.218L32.6808 149.712L31.3531 148.431C30.2239 147.342 29.2014 147.433 28.5072 148.153C27.8369 148.848 27.8309 149.872 28.9601 150.961L30.2629 152.218Z" fill="#202020"/>
<path d="M56.9376 157.86C60.2798 159.422 61.6646 163.096 60.1606 166.313C58.6492 169.546 54.9655 170.831 51.6076 169.261C48.2654 167.699 46.9118 164.04 48.4159 160.823C49.9199 157.605 53.5953 156.298 56.9376 157.86ZM56.0833 159.687C53.8656 158.651 51.4122 159.502 50.3681 161.735C49.324 163.969 50.2368 166.413 52.4546 167.449C54.688 168.494 57.157 167.649 58.2083 165.4C59.2524 163.167 58.3167 160.731 56.0833 159.687Z" fill="#202020"/>
<path d="M71.6975 175.82L72.0052 173.843L76.1958 174.496L76.7158 171.157L72.9341 170.568L73.2312 168.66L77.013 169.249L77.7479 164.531L79.8773 164.862L79.1424 169.581L80.42 169.78L80.1228 171.688L78.8452 171.489L78.0174 176.804L71.6975 175.82Z" fill="#202020"/>
<path d="M109.182 171.037L110.088 174.435L108.005 174.99L104.898 163.329L106.98 162.774L108.499 168.471L112.224 170.066L110.062 161.953L112.145 161.398L114.724 171.077L115.789 171.525L114.958 173.494L109.182 171.037Z" fill="#202020"/>
<path d="M129.683 153.176C132.805 151.209 136.644 152.03 138.537 155.035C140.439 158.055 139.528 161.848 136.392 163.824C133.27 165.791 129.461 164.951 127.568 161.946C125.675 158.941 126.562 155.142 129.683 153.176ZM130.759 154.882C128.687 156.187 128.077 158.711 129.391 160.797C130.705 162.883 133.255 163.437 135.326 162.132C137.412 160.818 138.037 158.284 136.714 156.184C135.399 154.098 132.845 153.568 130.759 154.882Z" fill="#202020"/>
<path d="M151.709 148.327L152.072 146.527L153.021 148.103L154.869 147.868L153.656 149.284L154.449 150.95L152.75 150.231L151.388 151.504L151.543 149.648L149.926 148.769L151.709 148.327ZM143.684 142.15L145.174 140.593L150.53 145.719L149.04 147.276L143.684 142.15Z" fill="#202020"/>
<path d="M157.174 136.752L161.433 139.627L160.227 141.413L150.224 134.661L151.43 132.875L155.488 135.614L157.253 132.999L153.195 130.26L154.4 128.474L158.459 131.213L159.086 130.284L160.772 131.422L160.145 132.351L164.403 135.225L163.198 137.011L158.939 134.137L157.174 136.752Z" fill="#202020"/>
<path d="M160.755 114.018C161.494 111.921 163.211 111.045 165.126 111.264L165.024 113.421C163.882 113.238 163.023 113.703 162.69 114.646C162.409 115.443 162.673 116.303 163.551 116.613C165.502 117.301 167.687 112.661 170.874 113.785C172.743 114.444 173.356 116.232 172.731 118.004C172.048 119.939 170.518 120.752 168.658 120.48L168.76 118.377C169.847 118.56 170.503 118.151 170.773 117.387C171.008 116.72 170.785 116.057 170.102 115.816C168.281 115.174 166.161 119.837 162.844 118.667C160.763 117.933 160.072 115.953 160.755 114.018Z" fill="#202020"/>
<path d="M172.697 100.94L166.575 100.305L166.459 101.419L164.504 101.217L165.401 92.5739L173.478 93.412C176.273 93.7021 177.482 95.5782 177.27 97.6188C177.064 99.608 175.492 101.23 172.697 100.94ZM173.255 95.5556L167.133 94.9203L166.797 98.1613L172.919 98.7966C174.531 98.9639 175.19 98.287 175.281 97.4124C175.374 96.5207 174.867 95.7228 173.255 95.5556Z" fill="#202020"/>
<path d="M177.204 80.1521L175.224 80.4347L174.625 76.2362L171.28 76.7137L171.821 80.5026L169.909 80.7755L169.368 76.9865L164.641 77.6614L164.336 75.5279L169.064 74.8531L168.881 73.5731L170.793 73.3002L170.975 74.5802L176.3 73.8201L177.204 80.1521Z" fill="#202020"/>
<path d="M162.196 51.1874C161.835 50.481 162.114 49.6614 162.79 49.3167C163.481 48.9641 164.292 49.2273 164.653 49.9338C165.005 50.6248 164.75 51.4519 164.059 51.8045C163.383 52.1493 162.548 51.8785 162.196 51.1874ZM156.813 53.9144C156.46 53.2234 156.731 52.3884 157.407 52.0437C158.098 51.6911 158.917 51.9697 159.27 52.6608C159.63 53.3672 159.367 54.1789 158.676 54.5315C158 54.8763 157.165 54.6055 156.813 53.9144Z" fill="#202020"/>
<path d="M143.194 27.9802L141.088 30.2831L144.778 33.657L143.428 35.1329L138.148 30.3048L141.603 26.526L140.776 25.7698L142.091 24.3321L142.918 25.0883L146.292 21.3986L150.02 24.8073L148.682 26.2705L146.544 24.316L144.508 26.5425L147.193 28.9973L145.878 30.435L143.194 27.9802Z" fill="#202020"/>
<path d="M131.177 15.0793L132.878 12.0011L134.764 13.0436L128.927 23.6059L127.041 22.5634L129.893 17.403L128.31 13.6722L124.249 21.0206L122.363 19.9782L127.208 11.2114L126.75 10.1508L128.715 9.30586L131.177 15.0793Z" fill="#202020"/>
<path d="M103.144 13.6411C99.5173 12.9649 97.2571 9.75511 97.908 6.26376C98.5621 2.75545 101.807 0.589475 105.451 1.26879C109.078 1.94495 111.304 5.14844 110.653 8.63979C110.002 12.1311 106.771 14.3172 103.144 13.6411ZM103.514 11.6581C105.921 12.1068 108.083 10.6685 108.535 8.24484C108.986 5.82123 107.491 3.68347 105.084 3.2348C102.661 2.78297 100.482 4.21815 100.027 6.65871C99.5747 9.08232 101.09 11.2063 103.514 11.6581Z" fill="#202020"/>
<path d="M75.1243 0.892304L83.1457 0.02269L83.3613 2.01092L80.4304 2.32866L81.5155 12.3384L79.373 12.5706L78.2879 2.56093L75.3398 2.88053L75.1243 0.892304Z" fill="#202020"/>
<path d="M60.4687 8.38474L59.2213 5.09638L61.2362 4.332L65.5168 15.6156L63.5018 16.38L61.4105 10.8671L57.5417 9.66111L60.5197 17.5113L58.5048 18.2756L54.952 8.91027L53.8469 8.57347L54.4727 6.52902L60.4687 8.38474Z" fill="#202020"/>
<path d="M43.612 17.3369L47.1263 22.3898L48.0463 21.75L49.1684 23.3635L42.0349 28.3248L37.3985 21.6583C35.794 19.3513 36.4262 17.2106 38.1105 16.0392C39.7523 14.8973 42.0075 15.0299 43.612 17.3369ZM39.1678 20.4279L42.682 25.4808L45.357 23.6203L41.8428 18.5674C40.9175 17.237 39.9742 17.179 39.2524 17.681C38.5164 18.1929 38.2424 19.0974 39.1678 20.4279Z" fill="#202020"/>
<path d="M21.1739 31.5506C23.1376 29.2149 25.2815 29.1028 26.931 30.4897C28.5673 31.8654 28.9439 34.0966 26.9912 36.4191L25.9261 37.6859L29.3571 40.5705L28.0257 42.154L24.5947 39.2694L23.9845 39.9952L22.4934 38.7415L23.1036 38.0157L18.7885 34.3877L21.1739 31.5506ZM24.435 36.4322L25.489 35.1785C26.5651 33.8985 26.4373 32.845 25.5796 32.1239C24.7482 31.4249 23.7565 31.5596 22.6692 32.8529L21.6374 34.0801L24.435 36.4322Z" fill="#202020"/>
<path d="M87.1532 94.1037H77.5752L90.9843 67.2854V82.6101H100.562L87.1532 109.428V94.1037Z" fill="black"/>
</svg>
